<svg xmlns="http://www.w3.org/2000/svg" viewBox="0 0 860 640" width="860" height="640" font-family="-apple-system, BlinkMacSystemFont, 'Segoe UI', Helvetica, Arial, sans-serif">
<rect x="0.5" y="0.5" width="859" height="639" rx="6" fill="#1a1a19" stroke="#2c2c2a"/>
<rect x="20" y="15" width="12" height="12" rx="3" fill="#3987e5"/><text x="38" y="25" font-size="12" fill="#c3c2b7">2026-09-21</text><rect x="124" y="15" width="12" height="12" rx="3" fill="#d95926"/><text x="142" y="25" font-size="12" fill="#c3c2b7">2026-10-08</text><rect x="228" y="15" width="12" height="12" rx="3" fill="#199e70"/><text x="246" y="25" font-size="12" fill="#c3c2b7">2026-10-09 (TS-TR added)</text><line x1="421.6" x2="439.6" y1="21" y2="21" stroke="#94928b" stroke-width="2" stroke-dasharray="5 4"/><text x="445.6" y="25" font-size="12" fill="#c3c2b7">Acceptance target</text>
<text x="20" y="60" font-size="14" font-weight="600" fill="#ffffff">Exact-line accuracy by test set, float model</text><text x="20" y="77" font-size="11.5" fill="#94928b">%, higher is better · target at least 80%</text><line x1="56" x2="830" y1="288" y2="288" stroke="#45453f"/><text x="50" y="292" text-anchor="end" font-size="11" fill="#94928b">0</text><line x1="56" x2="830" y1="250.4" y2="250.4" stroke="#2c2c2a"/><text x="50" y="254.4" text-anchor="end" font-size="11" fill="#94928b">20</text><line x1="56" x2="830" y1="212.8" y2="212.8" stroke="#2c2c2a"/><text x="50" y="216.8" text-anchor="end" font-size="11" fill="#94928b">40</text><line x1="56" x2="830" y1="175.2" y2="175.2" stroke="#2c2c2a"/><text x="50" y="179.2" text-anchor="end" font-size="11" fill="#94928b">60</text><line x1="56" x2="830" y1="137.6" y2="137.6" stroke="#2c2c2a"/><text x="50" y="141.6" text-anchor="end" font-size="11" fill="#94928b">80</text><line x1="56" x2="830" y1="100" y2="100" stroke="#2c2c2a"/><text x="50" y="104" text-anchor="end" font-size="11" fill="#94928b">100</text><line x1="56" x2="830" y1="137.6" y2="137.6" stroke="#94928b" stroke-width="1.5" stroke-dasharray="5 4"/><path d="M84.75,288V288q0,-0.9963999999999942 0.9963999999999942,-0.9963999999999942h42.00720000000001q0.9963999999999942,0 0.9963999999999942,0.9963999999999942V288z" fill="#3987e5"/><text x="106.75" y="282.0036" text-anchor="middle" font-size="10.5" fill="#c3c2b7" stroke="#1a1a19" stroke-width="3" paint-order="stroke">0.5</text><path d="M130.75,288V288q0,-1.0903999999999883 1.0903999999999883,-1.0903999999999883h41.81920000000002q1.0903999999999883,0 1.0903999999999883,1.0903999999999883V288z" fill="#d95926"/><text x="152.75" y="281.9096" text-anchor="middle" font-size="10.5" fill="#c3c2b7" stroke="#1a1a19" stroke-width="3" paint-order="stroke">0.6</text><path d="M176.75,288V206.77960000000002q0,-4 4,-4h36q4,0 4,4V288z" fill="#199e70"/><text x="198.75" y="197.77960000000002" text-anchor="middle" font-size="10.5" fill="#c3c2b7" stroke="#1a1a19" stroke-width="3" paint-order="stroke">45.3</text><text x="152.75" y="304" text-anchor="middle" font-size="11" fill="#c3c2b7">TS-TR test (real scene text)</text><text x="152.75" y="318" text-anchor="middle" font-size="11" fill="#94928b">n = 2,078</text><path d="M278.25,288V269.2144q0,-4 4,-4h36q4,0 4,4V288z" fill="#3987e5"/><text x="300.25" y="260.2144" text-anchor="middle" font-size="10.5" fill="#c3c2b7" stroke="#1a1a19" stroke-width="3" paint-order="stroke">12.1</text><path d="M324.25,288V266.3568q0,-4 4,-4h36q4,0 4,4V288z" fill="#d95926"/><text x="346.25" y="257.3568" text-anchor="middle" font-size="10.5" fill="#c3c2b7" stroke="#1a1a19" stroke-width="3" paint-order="stroke">13.6</text><path d="M370.25,288V254.964q0,-4 4,-4h36q4,0 4,4V288z" fill="#199e70"/><text x="392.25" y="245.964" text-anchor="middle" font-size="10.5" fill="#c3c2b7" stroke="#1a1a19" stroke-width="3" paint-order="stroke">19.7</text><text x="346.25" y="304" text-anchor="middle" font-size="11" fill="#c3c2b7">Separate test (real photos)</text><text x="346.25" y="318" text-anchor="middle" font-size="11" fill="#94928b">n = 66</text><path d="M471.75,288V184.68959999999998q0,-4 4,-4h36q4,0 4,4V288z" fill="#3987e5"/><text x="493.75" y="175.68959999999998" text-anchor="middle" font-size="10.5" fill="#c3c2b7" stroke="#1a1a19" stroke-width="3" paint-order="stroke">57.1</text><path d="M517.75,288V182.02q0,-4 4,-4h36q4,0 4,4V288z" fill="#d95926"/><text x="539.75" y="173.02" text-anchor="middle" font-size="10.5" fill="#c3c2b7" stroke="#1a1a19" stroke-width="3" paint-order="stroke">58.5</text><path d="M563.75,288V182.5276q0,-4 4,-4h36q4,0 4,4V288z" fill="#199e70"/><text x="585.75" y="173.5276" text-anchor="middle" font-size="10.5" fill="#c3c2b7" stroke="#1a1a19" stroke-width="3" paint-order="stroke">58.2</text><text x="539.75" y="304" text-anchor="middle" font-size="11" fill="#c3c2b7">Held-out synthetic + real + Zenodo</text><text x="539.75" y="318" text-anchor="middle" font-size="11" fill="#94928b">n = 3,234</text><path d="M665.25,288V132.20000000000002q0,-4 4,-4h36q4,0 4,4V288z" fill="#3987e5"/><text x="687.25" y="123.20000000000002" text-anchor="middle" font-size="10.5" fill="#c3c2b7" stroke="#1a1a19" stroke-width="3" paint-order="stroke">85.0</text><path d="M711.25,288V127.5q0,-4 4,-4h36q4,0 4,4V288z" fill="#d95926"/><text x="733.25" y="118.5" text-anchor="middle" font-size="10.5" fill="#c3c2b7" stroke="#1a1a19" stroke-width="3" paint-order="stroke">87.5</text><path d="M757.25,288V120.91999999999999q0,-4 4,-4h36q4,0 4,4V288z" fill="#199e70"/><text x="779.25" y="111.91999999999999" text-anchor="middle" font-size="10.5" fill="#c3c2b7" stroke="#1a1a19" stroke-width="3" paint-order="stroke">91.0</text><text x="733.25" y="304" text-anchor="middle" font-size="11" fill="#c3c2b7">of which Zenodo (clean print)</text><text x="733.25" y="318" text-anchor="middle" font-size="11" fill="#94928b">n = 200</text><text x="20" y="356" font-size="14" font-weight="600" fill="#ffffff">Character error rate by test set, float model</text><text x="20" y="373" font-size="11.5" fill="#94928b">%, lower is better · target at most 5%</text><line x1="56" x2="830" y1="584" y2="584" stroke="#45453f"/><text x="50" y="588" text-anchor="end" font-size="11" fill="#94928b">0</text><line x1="56" x2="830" y1="546.4" y2="546.4" stroke="#2c2c2a"/><text x="50" y="550.4" text-anchor="end" font-size="11" fill="#94928b">20</text><line x1="56" x2="830" y1="508.8" y2="508.8" stroke="#2c2c2a"/><text x="50" y="512.8" text-anchor="end" font-size="11" fill="#94928b">40</text><line x1="56" x2="830" y1="471.2" y2="471.2" stroke="#2c2c2a"/><text x="50" y="475.2" text-anchor="end" font-size="11" fill="#94928b">60</text><line x1="56" x2="830" y1="433.6" y2="433.6" stroke="#2c2c2a"/><text x="50" y="437.6" text-anchor="end" font-size="11" fill="#94928b">80</text><line x1="56" x2="830" y1="396" y2="396" stroke="#2c2c2a"/><text x="50" y="400" text-anchor="end" font-size="11" fill="#94928b">100</text><line x1="56" x2="830" y1="574.6" y2="574.6" stroke="#94928b" stroke-width="1.5" stroke-dasharray="5 4"/><path d="M84.75,584V432.2232q0,-4 4,-4h36q4,0 4,4V584z" fill="#3987e5"/><text x="106.75" y="423.2232" text-anchor="middle" font-size="10.5" fill="#c3c2b7" stroke="#1a1a19" stroke-width="3" paint-order="stroke">82.9</text><path d="M130.75,584V432.8436q0,-4 4,-4h36q4,0 4,4V584z" fill="#d95926"/><text x="152.75" y="423.8436" text-anchor="middle" font-size="10.5" fill="#c3c2b7" stroke="#1a1a19" stroke-width="3" paint-order="stroke">82.5</text><path d="M176.75,584V542.5604q0,-4 4,-4h36q4,0 4,4V584z" fill="#199e70"/><text x="198.75" y="533.5604" text-anchor="middle" font-size="10.5" fill="#c3c2b7" stroke="#1a1a19" stroke-width="3" paint-order="stroke">24.2</text><text x="152.75" y="600" text-anchor="middle" font-size="11" fill="#c3c2b7">TS-TR test (real scene text)</text><text x="152.75" y="614" text-anchor="middle" font-size="11" fill="#94928b">n = 2,078</text><path d="M278.25,584V487.3448q0,-4 4,-4h36q4,0 4,4V584z" fill="#3987e5"/><text x="300.25" y="478.3448" text-anchor="middle" font-size="10.5" fill="#c3c2b7" stroke="#1a1a19" stroke-width="3" paint-order="stroke">53.5</text><path d="M324.25,584V484.48720000000003q0,-4 4,-4h36q4,0 4,4V584z" fill="#d95926"/><text x="346.25" y="475.48720000000003" text-anchor="middle" font-size="10.5" fill="#c3c2b7" stroke="#1a1a19" stroke-width="3" paint-order="stroke">55.1</text><path d="M370.25,584V493.60519999999997q0,-4 4,-4h36q4,0 4,4V584z" fill="#199e70"/><text x="392.25" y="484.60519999999997" text-anchor="middle" font-size="10.5" fill="#c3c2b7" stroke="#1a1a19" stroke-width="3" paint-order="stroke">50.2</text><text x="346.25" y="600" text-anchor="middle" font-size="11" fill="#c3c2b7">Separate test (real photos)</text><text x="346.25" y="614" text-anchor="middle" font-size="11" fill="#94928b">n = 66</text><path d="M471.75,584V563.5036q0,-4 4,-4h36q4,0 4,4V584z" fill="#3987e5"/><text x="493.75" y="554.5036" text-anchor="middle" font-size="10.5" fill="#c3c2b7" stroke="#1a1a19" stroke-width="3" paint-order="stroke">13.0</text><path d="M517.75,584V564.1428q0,-4 4,-4h36q4,0 4,4V584z" fill="#d95926"/><text x="539.75" y="555.1428" text-anchor="middle" font-size="10.5" fill="#c3c2b7" stroke="#1a1a19" stroke-width="3" paint-order="stroke">12.7</text><path d="M563.75,584V564.2932q0,-4 4,-4h36q4,0 4,4V584z" fill="#199e70"/><text x="585.75" y="555.2932" text-anchor="middle" font-size="10.5" fill="#c3c2b7" stroke="#1a1a19" stroke-width="3" paint-order="stroke">12.6</text><text x="539.75" y="600" text-anchor="middle" font-size="11" fill="#c3c2b7">Held-out synthetic + real + Zenodo</text><text x="539.75" y="614" text-anchor="middle" font-size="11" fill="#94928b">n = 3,234</text><path d="M665.25,584V580.8748q0,-4 4,-4h36q4,0 4,4V584z" fill="#3987e5"/><text x="687.25" y="571.8748" text-anchor="middle" font-size="10.5" fill="#c3c2b7" stroke="#1a1a19" stroke-width="3" paint-order="stroke">3.8</text><path d="M711.25,584V581.514q0,-4 4,-4h36q4,0 4,4V584z" fill="#d95926"/><text x="733.25" y="572.514" text-anchor="middle" font-size="10.5" fill="#c3c2b7" stroke="#1a1a19" stroke-width="3" paint-order="stroke">3.5</text><path d="M757.25,584V584q0,-3.02679999999998 3.02679999999998,-3.02679999999998h37.94640000000004q3.02679999999998,0 3.02679999999998,3.02679999999998V584z" fill="#199e70"/><text x="779.25" y="575.9732" text-anchor="middle" font-size="10.5" fill="#c3c2b7" stroke="#1a1a19" stroke-width="3" paint-order="stroke">1.6</text><text x="733.25" y="600" text-anchor="middle" font-size="11" fill="#c3c2b7">of which Zenodo (clean print)</text><text x="733.25" y="614" text-anchor="middle" font-size="11" fill="#94928b">n = 200</text>
</svg>
